<svg xmlns="http://www.w3.org/2000/svg" viewBox="0 0 512 512"><defs><linearGradient id="g" x1="0" x2="1" y1="0" y2="1"><stop stop-color="#ffd35a"/><stop offset="1" stop-color="#f2a900"/></linearGradient></defs><circle cx="256" cy="256" r="238" fill="url(#g)"/><path d="M156 245v-61c0-40 32-73 72-73 13-25 38-40 66-40 40 0 73 31 77 70 30 7 52 34 52 66 0 38-31 69-69 69H156c-31 0-56-25-56-56 0-28 21-52 49-57 0 0 3 0 7 1z" fill="#fff" stroke="#1c241e" stroke-width="18"/><path d="M148 273h216v54c0 24-19 43-43 43H191c-24 0-43-19-43-43z" fill="#fff" stroke="#1c241e" stroke-width="18"/><path d="M127 250L69 337M385 250l58 87" stroke="#1c241e" stroke-width="18" stroke-linecap="round"/><path d="M55 343l-18 31M70 351l-18 31M85 359l-18 31M427 343l18 31M442 335l18 31M412 351l18 31" stroke="#1c241e" stroke-width="13" stroke-linecap="round"/><path d="M256 332c-4 47-1 72 0 88" stroke="#2c7a3f" stroke-width="12" stroke-linecap="round"/><path d="M256 355c-42-31-66-7-66-7 18 37 53 34 66 7zM256 369c40-32 66-9 66-9-18 37-52 35-66 9z" fill="#48a64f" stroke="#1f6b35" stroke-width="8"/></svg>